<svg width="24" height="22" viewBox="0 0 24 22" fill="none" xmlns="http://www.w3.org/2000/svg">
<path opacity="0.3" d="M9 9.1665C9.82843 9.1665 10.5 8.55089 10.5 7.7915C10.5 7.03211 9.82843 6.4165 9 6.4165C8.17157 6.4165 7.5 7.03211 7.5 7.7915C7.5 8.55089 8.17157 9.1665 9 9.1665Z" fill="black" fill-opacity="0.6"/>
<path opacity="0.3" d="M4.77002 15.5832H9.05002C9.06002 15.5282 9.17002 15.0515 9.34002 14.6757C9.23002 14.6757 9.11002 14.6665 9.00002 14.6665C7.47002 14.6665 5.75002 15.1248 4.77002 15.5832Z" fill="black" fill-opacity="0.6"/>
<path d="M9 11.0002C10.93 11.0002 12.5 9.561 12.5 7.79183C12.5 6.02266 10.93 4.5835 9 4.5835C7.07 4.5835 5.5 6.02266 5.5 7.79183C5.5 9.561 7.07 11.0002 9 11.0002ZM9 6.41683C9.83 6.41683 10.5 7.031 10.5 7.79183C10.5 8.55266 9.83 9.16683 9 9.16683C8.17 9.16683 7.5 8.55266 7.5 7.79183C7.5 7.031 8.17 6.41683 9 6.41683ZM9.05 15.5835H4.77C5.76 15.1252 7.47 14.6668 9 14.6668C9.11 14.6668 9.23 14.676 9.34 14.676C9.68 14.0068 10.27 13.4568 10.98 13.0168C10.25 12.8977 9.56 12.8335 9 12.8335C6.66 12.8335 2 13.906 2 16.0418V17.4168H9V16.0418C9 15.886 9.02 15.7302 9.05 15.5835ZM16.5 13.2918C14.66 13.2918 11 14.2177 11 16.0418V17.4168H22V16.0418C22 14.2177 18.34 13.2918 16.5 13.2918ZM17.71 11.6235C18.47 11.2293 19 10.4868 19 9.62516C19 8.36016 17.88 7.3335 16.5 7.3335C15.12 7.3335 14 8.36016 14 9.62516C14 10.4868 14.53 11.2293 15.29 11.6235C15.65 11.8068 16.06 11.9168 16.5 11.9168C16.94 11.9168 17.35 11.8068 17.71 11.6235Z" fill="black" fill-opacity="0.6"/>
</svg>
