<svg width="24" height="22" viewBox="0 0 24 22" fill="none" xmlns="http://www.w3.org/2000/svg">
<path d="M12 8.25H16C16.55 8.25 17 7.8375 17 7.33333C17 6.82917 16.55 6.41667 16 6.41667H12C11.45 6.41667 11 6.82917 11 7.33333C11 7.8375 11.45 8.25 12 8.25ZM12 11.9167H16C16.55 11.9167 17 11.5042 17 11C17 10.4958 16.55 10.0833 16 10.0833H12C11.45 10.0833 11 10.4958 11 11C11 11.5042 11.45 11.9167 12 11.9167ZM12 15.5833H16C16.55 15.5833 17 15.1708 17 14.6667C17 14.1625 16.55 13.75 16 13.75H12C11.45 13.75 11 14.1625 11 14.6667C11 15.1708 11.45 15.5833 12 15.5833ZM7 6.41667H9V8.25H7V6.41667ZM7 10.0833H9V11.9167H7V10.0833ZM7 13.75H9V15.5833H7V13.75ZM20 2.75H4C3.45 2.75 3 3.1625 3 3.66667V18.3333C3 18.8375 3.45 19.25 4 19.25H20C20.55 19.25 21 18.8375 21 18.3333V3.66667C21 3.1625 20.55 2.75 20 2.75ZM19 17.4167H5V4.58333H19V17.4167Z" fill="#6200EE"/>
</svg>
