<svg width="24" height="23" viewBox="0 0 24 23" fill="none" xmlns="http://www.w3.org/2000/svg">
<path d="M18 2.54603L6 2.53687C4.9 2.53687 4 3.3527 4 4.3702V19.0369C4 20.0452 4.9 20.8702 6 20.8702H18C19.1 20.8702 20 20.0452 20 19.0369V4.3702C20 3.3527 19.1 2.54603 18 2.54603ZM17 19.0369H7C6.45 19.0369 6 18.6244 6 18.1202V11.6852C6 11.181 6.45 10.7685 7 10.7685H17C17.55 10.7685 18 11.181 18 11.6852V18.1202C18 18.6244 17.55 19.0369 17 19.0369ZM17 8.95353H7C6.45 8.95353 6 8.54103 6 8.03687V5.28687C6 4.7827 6.45 4.3702 7 4.3702H17C17.55 4.3702 18 4.7827 18 5.28687V8.03687C18 8.54103 17.55 8.95353 17 8.95353ZM9 5.28687C9.55 5.28687 10 5.69937 10 6.20353V7.1202C10 7.62437 9.55 8.03687 9 8.03687C8.45 8.03687 8 7.62437 8 7.1202V6.20353C8 5.69937 8.45 5.28687 9 5.28687ZM9 11.7035C9.55 11.7035 10 12.116 10 12.6202V15.3702C10 15.8744 9.55 16.2869 9 16.2869C8.45 16.2869 8 15.8744 8 15.3702V12.6202C8 12.116 8.45 11.7035 9 11.7035Z" fill="black" fill-opacity="0.6"/>
</svg>
