<svg width="16" height="16" viewBox="0 0 16 16" fill="none" xmlns="http://www.w3.org/2000/svg">
<path d="M8.00001 1.33325C4.32001 1.33325 1.33334 4.31992 1.33334 7.99992C1.33334 11.6799 4.32001 14.6666 8.00001 14.6666C11.68 14.6666 14.6667 11.6799 14.6667 7.99992C14.6667 4.31992 11.68 1.33325 8.00001 1.33325ZM6.19334 10.8599L3.80001 8.46659C3.54001 8.20659 3.54001 7.78659 3.80001 7.52659C4.06001 7.26659 4.48001 7.26659 4.74001 7.52659L6.66668 9.44659L11.2533 4.85992C11.5133 4.59992 11.9333 4.59992 12.1933 4.85992C12.4533 5.11992 12.4533 5.53992 12.1933 5.79992L7.13334 10.8599C6.88001 11.1199 6.45334 11.1199 6.19334 10.8599Z" fill="#01A299"/>
</svg>
