<svg width="24" height="24" viewBox="0 0 24 24" fill="none" xmlns="http://www.w3.org/2000/svg">
<path d="M15.765 14.0001H14.9997L14.7284 13.7301C15.891 12.3301 16.4916 10.4201 16.1622 8.39014C15.7069 5.61014 13.4592 3.39014 10.7466 3.05014C6.64852 2.53014 3.19956 6.09014 3.70334 10.3201C4.03274 13.1201 6.18349 15.4401 8.87678 15.9101C10.8435 16.2501 12.6939 15.6301 14.0502 14.4301L14.3118 14.7101V15.5001L18.4292 19.7501C18.8265 20.1601 19.4756 20.1601 19.8728 19.7501C20.27 19.3401 20.27 18.6701 19.8728 18.2601L15.765 14.0001ZM9.95216 14.0001C7.53983 14.0001 5.59252 11.9901 5.59252 9.50014C5.59252 7.01014 7.53983 5.00014 9.95216 5.00014C12.3645 5.00014 14.3118 7.01014 14.3118 9.50014C14.3118 11.9901 12.3645 14.0001 9.95216 14.0001Z" fill="#323232"/>
</svg>
