<svg width="40" height="40" viewBox="0 0 40 40" fill="none" xmlns="http://www.w3.org/2000/svg">
<path d="M13.3333 3.33325C11.5 3.33325 10 4.83325 10 6.66659L10.0167 11.9666C10.0167 12.8499 10.3667 13.6833 10.9833 14.3166L16.6667 19.9999L10.9833 25.7166C10.3667 26.3333 10.0167 27.1833 10.0167 28.0666L10 33.3333C10 35.1666 11.5 36.6666 13.3333 36.6666H26.6667C28.5 36.6666 30 35.1666 30 33.3333V28.0666C30 27.1833 29.65 26.3333 29.0333 25.7166L23.3333 19.9999L29.0167 14.3333C29.65 13.6999 30 12.8499 30 11.9666V6.66659C30 4.83325 28.5 3.33325 26.6667 3.33325H13.3333ZM26.6667 28.1833V31.6666C26.6667 32.5833 25.9167 33.3333 25 33.3333H15C14.0833 33.3333 13.3333 32.5833 13.3333 31.6666V28.1833C13.3333 27.7333 13.5167 27.3166 13.8167 26.9999L20 20.8333L26.1833 27.0166C26.4833 27.3166 26.6667 27.7499 26.6667 28.1833Z" fill="#323232"/>
</svg>
