<svg width="40" height="40" viewBox="0 0 40 40" fill="none" xmlns="http://www.w3.org/2000/svg">
<path d="M13.3333 3.33337C11.5 3.33337 10 4.83337 10 6.66671L10.0167 11.9667C10.0167 12.85 10.3667 13.6834 10.9833 14.3167L16.6667 20L10.9833 25.7167C10.3667 26.3334 10.0167 27.1834 10.0167 28.0667L10 33.3334C10 35.1667 11.5 36.6667 13.3333 36.6667H26.6667C28.5 36.6667 30 35.1667 30 33.3334V28.0667C30 27.1834 29.65 26.3334 29.0333 25.7167L23.3333 20L29.0167 14.3334C29.65 13.7 30 12.85 30 11.9667V6.66671C30 4.83337 28.5 3.33337 26.6667 3.33337H13.3333ZM26.6667 28.1834V31.6667C26.6667 32.5834 25.9167 33.3334 25 33.3334H15C14.0833 33.3334 13.3333 32.5834 13.3333 31.6667V28.1834C13.3333 27.7334 13.5167 27.3167 13.8167 27L20 20.8334L26.1833 27.0167C26.4833 27.3167 26.6667 27.75 26.6667 28.1834Z" fill="#323232"/>
</svg>
