<svg width="24" height="22" viewBox="0 0 24 22" fill="none" xmlns="http://www.w3.org/2000/svg">
<path d="M18 1.84242L6 1.83325C4.9 1.83325 4 2.64909 4 3.66659V18.3333C4 19.3416 4.9 20.1666 6 20.1666H18C19.1 20.1666 20 19.3416 20 18.3333V3.66659C20 2.64909 19.1 1.84242 18 1.84242ZM17 18.3333H7C6.45 18.3333 6 17.9208 6 17.4166V10.9816C6 10.4774 6.45 10.0649 7 10.0649H17C17.55 10.0649 18 10.4774 18 10.9816V17.4166C18 17.9208 17.55 18.3333 17 18.3333ZM17 8.24992H7C6.45 8.24992 6 7.83742 6 7.33325V4.58325C6 4.07909 6.45 3.66659 7 3.66659H17C17.55 3.66659 18 4.07909 18 4.58325V7.33325C18 7.83742 17.55 8.24992 17 8.24992ZM9 4.58325C9.55 4.58325 10 4.99575 10 5.49992V6.41659C10 6.92075 9.55 7.33325 9 7.33325C8.45 7.33325 8 6.92075 8 6.41659V5.49992C8 4.99575 8.45 4.58325 9 4.58325ZM9 10.9999C9.55 10.9999 10 11.4124 10 11.9166V14.6666C10 15.1708 9.55 15.5833 9 15.5833C8.45 15.5833 8 15.1708 8 14.6666V11.9166C8 11.4124 8.45 10.9999 9 10.9999Z" fill="black" fill-opacity="0.6"/>
</svg>
