<svg width="24" height="22" viewBox="0 0 24 22" fill="none" xmlns="http://www.w3.org/2000/svg">
<path opacity="0.3" d="M9 9.16669C9.82843 9.16669 10.5 8.55108 10.5 7.79169C10.5 7.0323 9.82843 6.41669 9 6.41669C8.17157 6.41669 7.5 7.0323 7.5 7.79169C7.5 8.55108 8.17157 9.16669 9 9.16669Z" fill="black" fill-opacity="0.6"/>
<path opacity="0.3" d="M4.77002 15.5834H9.05002C9.06002 15.5284 9.17002 15.0517 9.34002 14.6759C9.23002 14.6759 9.11002 14.6667 9.00002 14.6667C7.47002 14.6667 5.75002 15.125 4.77002 15.5834Z" fill="black" fill-opacity="0.6"/>
<path d="M9 11C10.93 11 12.5 9.56081 12.5 7.79165C12.5 6.02248 10.93 4.58331 9 4.58331C7.07 4.58331 5.5 6.02248 5.5 7.79165C5.5 9.56081 7.07 11 9 11ZM9 6.41665C9.83 6.41665 10.5 7.03081 10.5 7.79165C10.5 8.55248 9.83 9.16665 9 9.16665C8.17 9.16665 7.5 8.55248 7.5 7.79165C7.5 7.03081 8.17 6.41665 9 6.41665ZM9.05 15.5833H4.77C5.76 15.125 7.47 14.6666 9 14.6666C9.11 14.6666 9.23 14.6758 9.34 14.6758C9.68 14.0066 10.27 13.4566 10.98 13.0166C10.25 12.8975 9.56 12.8333 9 12.8333C6.66 12.8333 2 13.9058 2 16.0416V17.4166H9V16.0416C9 15.8858 9.02 15.73 9.05 15.5833ZM16.5 13.2916C14.66 13.2916 11 14.2175 11 16.0416V17.4166H22V16.0416C22 14.2175 18.34 13.2916 16.5 13.2916ZM17.71 11.6233C18.47 11.2291 19 10.4866 19 9.62498C19 8.35998 17.88 7.33331 16.5 7.33331C15.12 7.33331 14 8.35998 14 9.62498C14 10.4866 14.53 11.2291 15.29 11.6233C15.65 11.8066 16.06 11.9166 16.5 11.9166C16.94 11.9166 17.35 11.8066 17.71 11.6233Z" fill="black" fill-opacity="0.6"/>
</svg>
