<svg width="24" height="23" viewBox="0 0 24 23" fill="none" xmlns="http://www.w3.org/2000/svg">
<path opacity="0.3" d="M9 9.29028C9.82843 9.29028 10.5 8.67467 10.5 7.91528C10.5 7.15589 9.82843 6.54028 9 6.54028C8.17157 6.54028 7.5 7.15589 7.5 7.91528C7.5 8.67467 8.17157 9.29028 9 9.29028Z" fill="black" fill-opacity="0.6"/>
<path opacity="0.3" d="M4.77002 15.7069H9.05002C9.06002 15.6519 9.17002 15.1753 9.34002 14.7995C9.23002 14.7995 9.11002 14.7903 9.00002 14.7903C7.47002 14.7903 5.75002 15.2486 4.77002 15.7069Z" fill="black" fill-opacity="0.6"/>
<path d="M9 11.1235C10.93 11.1235 12.5 9.68429 12.5 7.91512C12.5 6.14595 10.93 4.70679 9 4.70679C7.07 4.70679 5.5 6.14595 5.5 7.91512C5.5 9.68429 7.07 11.1235 9 11.1235ZM9 6.54012C9.83 6.54012 10.5 7.15429 10.5 7.91512C10.5 8.67595 9.83 9.29012 9 9.29012C8.17 9.29012 7.5 8.67595 7.5 7.91512C7.5 7.15429 8.17 6.54012 9 6.54012ZM9.05 15.7068H4.77C5.76 15.2485 7.47 14.7901 9 14.7901C9.11 14.7901 9.23 14.7993 9.34 14.7993C9.68 14.1301 10.27 13.5801 10.98 13.1401C10.25 13.021 9.56 12.9568 9 12.9568C6.66 12.9568 2 14.0293 2 16.1651V17.5401H9V16.1651C9 16.0093 9.02 15.8535 9.05 15.7068ZM16.5 13.4151C14.66 13.4151 11 14.341 11 16.1651V17.5401H22V16.1651C22 14.341 18.34 13.4151 16.5 13.4151ZM17.71 11.7468C18.47 11.3526 19 10.6101 19 9.74845C19 8.48345 17.88 7.45679 16.5 7.45679C15.12 7.45679 14 8.48345 14 9.74845C14 10.6101 14.53 11.3526 15.29 11.7468C15.65 11.9301 16.06 12.0401 16.5 12.0401C16.94 12.0401 17.35 11.9301 17.71 11.7468Z" fill="black" fill-opacity="0.6"/>
</svg>
