<svg width="24" height="22" viewBox="0 0 24 22" fill="none" xmlns="http://www.w3.org/2000/svg">
<path d="M22 8.25V6.41667H20V4.58333C20 3.575 19.1 2.75 18 2.75H4C2.9 2.75 2 3.575 2 4.58333V17.4167C2 18.425 2.9 19.25 4 19.25H18C19.1 19.25 20 18.425 20 17.4167V15.5833H22V13.75H20V11.9167H22V10.0833H20V8.25H22ZM18 17.4167H4V4.58333H18V17.4167ZM6 11.9167H11V15.5833H6V11.9167ZM12 6.41667H16V9.16667H12V6.41667ZM6 6.41667H11V11H6V6.41667ZM12 10.0833H16V15.5833H12V10.0833Z" fill="black" fill-opacity="0.6"/>
</svg>
