<svg width="24" height="22" viewBox="0 0 24 22" fill="none" xmlns="http://www.w3.org/2000/svg">
<path opacity="0.3" d="M9 9.16675C9.82843 9.16675 10.5 8.55114 10.5 7.79175C10.5 7.03236 9.82843 6.41675 9 6.41675C8.17157 6.41675 7.5 7.03236 7.5 7.79175C7.5 8.55114 8.17157 9.16675 9 9.16675Z" fill="black" fill-opacity="0.6"/>
<path opacity="0.3" d="M4.77002 15.5834H9.05002C9.06002 15.5284 9.17002 15.0517 9.34002 14.6759C9.23002 14.6759 9.11002 14.6667 9.00002 14.6667C7.47002 14.6667 5.75002 15.1251 4.77002 15.5834Z" fill="black" fill-opacity="0.6"/>
<path d="M9 10.9999C10.93 10.9999 12.5 9.56075 12.5 7.79159C12.5 6.02242 10.93 4.58325 9 4.58325C7.07 4.58325 5.5 6.02242 5.5 7.79159C5.5 9.56075 7.07 10.9999 9 10.9999ZM9 6.41659C9.83 6.41659 10.5 7.03075 10.5 7.79159C10.5 8.55242 9.83 9.16659 9 9.16659C8.17 9.16659 7.5 8.55242 7.5 7.79159C7.5 7.03075 8.17 6.41659 9 6.41659ZM9.05 15.5833H4.77C5.76 15.1249 7.47 14.6666 9 14.6666C9.11 14.6666 9.23 14.6758 9.34 14.6758C9.68 14.0066 10.27 13.4566 10.98 13.0166C10.25 12.8974 9.56 12.8333 9 12.8333C6.66 12.8333 2 13.9058 2 16.0416V17.4166H9V16.0416C9 15.8858 9.02 15.7299 9.05 15.5833ZM16.5 13.2916C14.66 13.2916 11 14.2174 11 16.0416V17.4166H22V16.0416C22 14.2174 18.34 13.2916 16.5 13.2916ZM17.71 11.6233C18.47 11.2291 19 10.4866 19 9.62492C19 8.35992 17.88 7.33325 16.5 7.33325C15.12 7.33325 14 8.35992 14 9.62492C14 10.4866 14.53 11.2291 15.29 11.6233C15.65 11.8066 16.06 11.9166 16.5 11.9166C16.94 11.9166 17.35 11.8066 17.71 11.6233Z" fill="black" fill-opacity="0.6"/>
</svg>
