<svg width="24" height="22" viewBox="0 0 24 22" fill="none" xmlns="http://www.w3.org/2000/svg">
<path d="M18 1.84248L6 1.83331C4.9 1.83331 4 2.64915 4 3.66665V18.3333C4 19.3416 4.9 20.1666 6 20.1666H18C19.1 20.1666 20 19.3416 20 18.3333V3.66665C20 2.64915 19.1 1.84248 18 1.84248ZM17 18.3333H7C6.45 18.3333 6 17.9208 6 17.4166V10.9816C6 10.4775 6.45 10.065 7 10.065H17C17.55 10.065 18 10.4775 18 10.9816V17.4166C18 17.9208 17.55 18.3333 17 18.3333ZM17 8.24998H7C6.45 8.24998 6 7.83748 6 7.33331V4.58331C6 4.07915 6.45 3.66665 7 3.66665H17C17.55 3.66665 18 4.07915 18 4.58331V7.33331C18 7.83748 17.55 8.24998 17 8.24998ZM9 4.58331C9.55 4.58331 10 4.99581 10 5.49998V6.41665C10 6.92081 9.55 7.33331 9 7.33331C8.45 7.33331 8 6.92081 8 6.41665V5.49998C8 4.99581 8.45 4.58331 9 4.58331ZM9 11C9.55 11 10 11.4125 10 11.9166V14.6666C10 15.1708 9.55 15.5833 9 15.5833C8.45 15.5833 8 15.1708 8 14.6666V11.9166C8 11.4125 8.45 11 9 11Z" fill="black" fill-opacity="0.6"/>
</svg>
