<svg width="16" height="17" viewBox="0 0 16 17" fill="none" xmlns="http://www.w3.org/2000/svg">
<path d="M8 1.52368C4.32 1.52368 1.33333 4.51035 1.33333 8.19035C1.33333 11.8703 4.32 14.857 8 14.857C11.68 14.857 14.6667 11.8703 14.6667 8.19035C14.6667 4.51035 11.68 1.52368 8 1.52368ZM6.19333 11.0503L3.8 8.65702C3.54 8.39702 3.54 7.97702 3.8 7.71702C4.06 7.45702 4.48 7.45702 4.74 7.71702L6.66667 9.63702L11.2533 5.05035C11.5133 4.79035 11.9333 4.79035 12.1933 5.05035C12.4533 5.31035 12.4533 5.73035 12.1933 5.99035L7.13333 11.0503C6.88 11.3103 6.45333 11.3103 6.19333 11.0503Z" fill="#01A299"/>
</svg>
