<svg width="16" height="17" viewBox="0 0 16 17" fill="none" xmlns="http://www.w3.org/2000/svg">
<path d="M8 1.90479C4.32 1.90479 1.33333 4.89145 1.33333 8.57145C1.33333 12.2515 4.32 15.2381 8 15.2381C11.68 15.2381 14.6667 12.2515 14.6667 8.57145C14.6667 4.89145 11.68 1.90479 8 1.90479ZM6.19333 11.4315L3.8 9.03812C3.54 8.77812 3.54 8.35812 3.8 8.09812C4.06 7.83812 4.48 7.83812 4.74 8.09812L6.66667 10.0181L11.2533 5.43145C11.5133 5.17145 11.9333 5.17145 12.1933 5.43145C12.4533 5.69145 12.4533 6.11145 12.1933 6.37145L7.13333 11.4315C6.88 11.6915 6.45333 11.6915 6.19333 11.4315Z" fill="#01A299"/>
</svg>
