<svg width="16" height="17" viewBox="0 0 16 17" fill="none" xmlns="http://www.w3.org/2000/svg">
<path d="M8.00004 1.5238C4.32004 1.5238 1.33337 4.51047 1.33337 8.19047C1.33337 11.8705 4.32004 14.8571 8.00004 14.8571C11.68 14.8571 14.6667 11.8705 14.6667 8.19047C14.6667 4.51047 11.68 1.5238 8.00004 1.5238ZM6.19337 11.0505L3.80004 8.65714C3.54004 8.39714 3.54004 7.97714 3.80004 7.71714C4.06004 7.45714 4.48004 7.45714 4.74004 7.71714L6.66671 9.63714L11.2534 5.05047C11.5134 4.79047 11.9334 4.79047 12.1934 5.05047C12.4534 5.31047 12.4534 5.73047 12.1934 5.99047L7.13337 11.0505C6.88004 11.3105 6.45337 11.3105 6.19337 11.0505Z" fill="#01A299"/>
</svg>
