<svg width="16" height="17" viewBox="0 0 16 17" fill="none" xmlns="http://www.w3.org/2000/svg">
<path d="M8.00004 1.90475C4.32004 1.90475 1.33337 4.89142 1.33337 8.57142C1.33337 12.2514 4.32004 15.2381 8.00004 15.2381C11.68 15.2381 14.6667 12.2514 14.6667 8.57142C14.6667 4.89142 11.68 1.90475 8.00004 1.90475ZM6.19337 11.4314L3.80004 9.03809C3.54004 8.77809 3.54004 8.35809 3.80004 8.09809C4.06004 7.83809 4.48004 7.83809 4.74004 8.09809L6.66671 10.0181L11.2534 5.43142C11.5134 5.17142 11.9334 5.17142 12.1934 5.43142C12.4534 5.69142 12.4534 6.11142 12.1934 6.37142L7.13337 11.4314C6.88004 11.6914 6.45337 11.6914 6.19337 11.4314Z" fill="#01A299"/>
</svg>
