<svg width="16" height="16" viewBox="0 0 16 16" fill="none" xmlns="http://www.w3.org/2000/svg">
<path d="M8.00004 1.33331C4.32004 1.33331 1.33337 4.31998 1.33337 7.99998C1.33337 11.68 4.32004 14.6666 8.00004 14.6666C11.68 14.6666 14.6667 11.68 14.6667 7.99998C14.6667 4.31998 11.68 1.33331 8.00004 1.33331ZM6.19337 10.86L3.80004 8.46665C3.54004 8.20665 3.54004 7.78665 3.80004 7.52665C4.06004 7.26665 4.48004 7.26665 4.74004 7.52665L6.66671 9.44665L11.2534 4.85998C11.5134 4.59998 11.9334 4.59998 12.1934 4.85998C12.4534 5.11998 12.4534 5.53998 12.1934 5.79998L7.13337 10.86C6.88004 11.12 6.45337 11.12 6.19337 10.86Z" fill="#01A299"/>
</svg>
