<svg width="16" height="17" viewBox="0 0 16 17" fill="none" xmlns="http://www.w3.org/2000/svg">
<path d="M8 1.71436C4.32 1.71436 1.33333 4.70102 1.33333 8.38102C1.33333 12.061 4.32 15.0477 8 15.0477C11.68 15.0477 14.6667 12.061 14.6667 8.38102C14.6667 4.70102 11.68 1.71436 8 1.71436ZM6.19333 11.241L3.8 8.84769C3.54 8.58769 3.54 8.16769 3.8 7.90769C4.06 7.64769 4.48 7.64769 4.74 7.90769L6.66667 9.82769L11.2533 5.24102C11.5133 4.98102 11.9333 4.98102 12.1933 5.24102C12.4533 5.50102 12.4533 5.92102 12.1933 6.18102L7.13333 11.241C6.88 11.501 6.45333 11.501 6.19333 11.241Z" fill="#01A299"/>
</svg>
