<svg width="16" height="17" viewBox="0 0 16 17" fill="none" xmlns="http://www.w3.org/2000/svg">
<path d="M8.00004 1.71429C4.32004 1.71429 1.33337 4.70096 1.33337 8.38096C1.33337 12.061 4.32004 15.0476 8.00004 15.0476C11.68 15.0476 14.6667 12.061 14.6667 8.38096C14.6667 4.70096 11.68 1.71429 8.00004 1.71429ZM6.19337 11.241L3.80004 8.84763C3.54004 8.58763 3.54004 8.16763 3.80004 7.90763C4.06004 7.64763 4.48004 7.64763 4.74004 7.90763L6.66671 9.82763L11.2534 5.24096C11.5134 4.98096 11.9334 4.98096 12.1934 5.24096C12.4534 5.50096 12.4534 5.92096 12.1934 6.18096L7.13337 11.241C6.88004 11.501 6.45337 11.501 6.19337 11.241Z" fill="#01A299"/>
</svg>
