<svg width="16" height="17" viewBox="0 0 16 17" fill="none" xmlns="http://www.w3.org/2000/svg">
<path d="M8 1.71411C4.32 1.71411 1.33333 4.70078 1.33333 8.38078C1.33333 12.0608 4.32 15.0474 8 15.0474C11.68 15.0474 14.6667 12.0608 14.6667 8.38078C14.6667 4.70078 11.68 1.71411 8 1.71411ZM6.19333 11.2408L3.8 8.84744C3.54 8.58744 3.54 8.16744 3.8 7.90744C4.06 7.64744 4.48 7.64744 4.74 7.90744L6.66667 9.82744L11.2533 5.24078C11.5133 4.98078 11.9333 4.98078 12.1933 5.24078C12.4533 5.50078 12.4533 5.92078 12.1933 6.18078L7.13333 11.2408C6.88 11.5008 6.45333 11.5008 6.19333 11.2408Z" fill="#01A299"/>
</svg>
