<svg width="324" height="58" viewBox="0 0 324 58" fill="none" xmlns="http://www.w3.org/2000/svg">
<path fill-rule="evenodd" clip-rule="evenodd" d="M0.74707 4C0.74707 1.79086 2.53793 0 4.74707 0H11.7471H312.747H319.747C321.956 0 323.747 1.79086 323.747 4V54C323.747 56.2091 321.956 58 319.747 58H4.74706C2.53792 58 0.74707 56.2091 0.74707 54V4ZM312.747 1H11.7471H5.24707C3.31407 1 1.74707 2.567 1.74707 4.5V53.5C1.74707 55.433 3.31407 57 5.24707 57H319.247C321.18 57 322.747 55.433 322.747 53.5V4.5C322.747 2.567 321.18 1 319.247 1H312.747Z" fill="black" fill-opacity="0.12"/>
</svg>
