<svg width="24" height="24" viewBox="0 0 24 24" fill="none" xmlns="http://www.w3.org/2000/svg">
<g clip-path="url(#clip0_367_1123)">
<path d="M15.7651 13.9999H14.9998L14.7285 13.7299C15.8911 12.3299 16.4917 10.4199 16.1623 8.38989C15.707 5.60989 13.4594 3.38989 10.7467 3.04989C6.64864 2.52989 3.19968 6.08989 3.70347 10.3199C4.03286 13.1199 6.18362 15.4399 8.87691 15.9099C10.8436 16.2499 12.694 15.6299 14.0503 14.4299L14.3119 14.7099V15.4999L18.4294 19.7499C18.8266 20.1599 19.4757 20.1599 19.8729 19.7499C20.2701 19.3399 20.2701 18.6699 19.8729 18.2599L15.7651 13.9999ZM9.95228 13.9999C7.53995 13.9999 5.59264 11.9899 5.59264 9.49989C5.59264 7.00989 7.53995 4.99989 9.95228 4.99989C12.3646 4.99989 14.3119 7.00989 14.3119 9.49989C14.3119 11.9899 12.3646 13.9999 9.95228 13.9999Z" fill="#323232"/>
</g>
<defs>
<clipPath id="clip0_367_1123">
<rect width="23.2514" height="24" fill="white" transform="translate(0.748596)"/>
</clipPath>
</defs>
</svg>
