<svg width="24" height="24" viewBox="0 0 24 24" fill="none" xmlns="http://www.w3.org/2000/svg">
<path fill-rule="evenodd" clip-rule="evenodd" d="M15.7649 14H14.9995L14.7283 13.73C15.6777 12.59 16.2493 11.11 16.2493 9.5C16.2493 5.91 13.4301 3 9.95204 3C6.47402 3 3.65479 5.91 3.65479 9.5C3.65479 13.09 6.47402 16 9.95204 16C11.5118 16 12.9457 15.41 14.0501 14.43L14.3117 14.71V15.5L19.1557 20.49L20.5993 19L15.7649 14ZM9.95204 14C7.53971 14 5.5924 11.99 5.5924 9.5C5.5924 7.01 7.53971 5 9.95204 5C12.3644 5 14.3117 7.01 14.3117 9.5C14.3117 11.99 12.3644 14 9.95204 14Z" fill="black" fill-opacity="0.87"/>
</svg>
