<svg width="120" height="25" viewBox="0 0 120 25" fill="none" xmlns="http://www.w3.org/2000/svg">
<g clip-path="url(#clip0_368_698)">
<path d="M19.8899 17.79L18.5932 16.5V11.5C18.5932 8.43 16.9447 5.86 14.0699 5.18V4.5C14.0699 3.67 13.3965 3 12.5622 3C11.7279 3 11.0544 3.67 11.0544 4.5V5.18C8.16954 5.86 6.53109 8.42 6.53109 11.5V16.5L5.23441 17.79C4.60115 18.42 5.04343 19.5 5.93804 19.5H19.1762C20.0809 19.5 20.5232 18.42 19.8899 17.79ZM16.5829 17.5H8.54145V11.5C8.54145 9.02 10.0593 7 12.5622 7C15.0651 7 16.5829 9.02 16.5829 11.5V17.5ZM12.5622 22.5C13.6679 22.5 14.5725 21.6 14.5725 20.5H10.5518C10.5518 21.6 11.4464 22.5 12.5622 22.5Z" fill="#323232"/>
</g>
<g clip-path="url(#clip1_368_698)">
<path d="M66.7175 16.58C65.9535 16.58 65.27 16.88 64.7473 17.35L57.5804 13.2C57.6306 12.97 57.6708 12.74 57.6708 12.5C57.6708 12.26 57.6306 12.03 57.5804 11.8L64.6669 7.69C65.2097 8.19 65.9234 8.5 66.7175 8.5C68.386 8.5 69.733 7.16 69.733 5.5C69.733 3.84 68.386 2.5 66.7175 2.5C65.0489 2.5 63.7019 3.84 63.7019 5.5C63.7019 5.74 63.7421 5.97 63.7924 6.2L56.7059 10.31C56.1631 9.81 55.4494 9.5 54.6553 9.5C52.9867 9.5 51.6398 10.84 51.6398 12.5C51.6398 14.16 52.9867 15.5 54.6553 15.5C55.4494 15.5 56.1631 15.19 56.7059 14.69L63.8627 18.85C63.8125 19.06 63.7823 19.28 63.7823 19.5C63.7823 21.11 65.0991 22.42 66.7175 22.42C68.3358 22.42 69.6526 21.11 69.6526 19.5C69.6526 17.89 68.3358 16.58 66.7175 16.58ZM66.7175 4.5C67.2703 4.5 67.7226 4.95 67.7226 5.5C67.7226 6.05 67.2703 6.5 66.7175 6.5C66.1646 6.5 65.7123 6.05 65.7123 5.5C65.7123 4.95 66.1646 4.5 66.7175 4.5ZM54.6553 13.5C54.1025 13.5 53.6501 13.05 53.6501 12.5C53.6501 11.95 54.1025 11.5 54.6553 11.5C55.2082 11.5 55.6605 11.95 55.6605 12.5C55.6605 13.05 55.2082 13.5 54.6553 13.5ZM66.7175 20.52C66.1646 20.52 65.7123 20.07 65.7123 19.52C65.7123 18.97 66.1646 18.52 66.7175 18.52C67.2703 18.52 67.7226 18.97 67.7226 19.52C67.7226 20.07 67.2703 20.52 66.7175 20.52Z" fill="#323232"/>
</g>
<path d="M111.765 14.5001H111L110.728 14.2301C111.891 12.8301 112.492 10.9201 112.162 8.89014C111.707 6.11014 109.459 3.89014 106.747 3.55014C102.649 3.03014 99.1996 6.59014 99.7033 10.8201C100.033 13.6201 102.183 15.9401 104.877 16.4101C106.843 16.7501 108.694 16.1301 110.05 14.9301L110.312 15.2101V16.0001L114.429 20.2501C114.826 20.6601 115.476 20.6601 115.873 20.2501C116.27 19.8401 116.27 19.1701 115.873 18.7601L111.765 14.5001ZM105.952 14.5001C103.54 14.5001 101.593 12.4901 101.593 10.0001C101.593 7.51014 103.54 5.50014 105.952 5.50014C108.364 5.50014 110.312 7.51014 110.312 10.0001C110.312 12.4901 108.364 14.5001 105.952 14.5001Z" fill="#323232"/>
<defs>
<clipPath id="clip0_368_698">
<rect width="24.1243" height="24" fill="white" transform="translate(0.5 0.5)"/>
</clipPath>
<clipPath id="clip1_368_698">
<rect width="24.1243" height="24" fill="white" transform="translate(48.6243 0.5)"/>
</clipPath>
</defs>
</svg>
