<svg width="120" height="24" viewBox="0 0 120 24" fill="none" xmlns="http://www.w3.org/2000/svg">
<g clip-path="url(#clip0_367_604)">
<path d="M19.8899 17.29L18.5932 16V11C18.5932 7.93 16.9447 5.36 14.0699 4.68V4C14.0699 3.17 13.3965 2.5 12.5622 2.5C11.7279 2.5 11.0544 3.17 11.0544 4V4.68C8.16954 5.36 6.53109 7.92 6.53109 11V16L5.23441 17.29C4.60115 17.92 5.04343 19 5.93804 19H19.1762C20.0809 19 20.5232 17.92 19.8899 17.29ZM16.5829 17H8.54145V11C8.54145 8.52 10.0593 6.5 12.5622 6.5C15.0651 6.5 16.5829 8.52 16.5829 11V17ZM12.5622 22C13.6679 22 14.5725 21.1 14.5725 20H10.5518C10.5518 21.1 11.4464 22 12.5622 22Z" fill="#323232"/>
</g>
<g clip-path="url(#clip1_367_604)">
<path d="M66.7175 16.08C65.9535 16.08 65.27 16.38 64.7473 16.85L57.5804 12.7C57.6306 12.47 57.6708 12.24 57.6708 12C57.6708 11.76 57.6306 11.53 57.5804 11.3L64.6669 7.19C65.2097 7.69 65.9234 8 66.7175 8C68.386 8 69.733 6.66 69.733 5C69.733 3.34 68.386 2 66.7175 2C65.0489 2 63.7019 3.34 63.7019 5C63.7019 5.24 63.7421 5.47 63.7924 5.7L56.7059 9.81C56.1631 9.31 55.4494 9 54.6553 9C52.9867 9 51.6398 10.34 51.6398 12C51.6398 13.66 52.9867 15 54.6553 15C55.4494 15 56.1631 14.69 56.7059 14.19L63.8627 18.35C63.8125 18.56 63.7823 18.78 63.7823 19C63.7823 20.61 65.0991 21.92 66.7175 21.92C68.3358 21.92 69.6526 20.61 69.6526 19C69.6526 17.39 68.3358 16.08 66.7175 16.08ZM66.7175 4C67.2703 4 67.7226 4.45 67.7226 5C67.7226 5.55 67.2703 6 66.7175 6C66.1646 6 65.7123 5.55 65.7123 5C65.7123 4.45 66.1646 4 66.7175 4ZM54.6553 13C54.1025 13 53.6501 12.55 53.6501 12C53.6501 11.45 54.1025 11 54.6553 11C55.2082 11 55.6605 11.45 55.6605 12C55.6605 12.55 55.2082 13 54.6553 13ZM66.7175 20.02C66.1646 20.02 65.7123 19.57 65.7123 19.02C65.7123 18.47 66.1646 18.02 66.7175 18.02C67.2703 18.02 67.7226 18.47 67.7226 19.02C67.7226 19.57 67.2703 20.02 66.7175 20.02Z" fill="#323232"/>
</g>
<g clip-path="url(#clip2_367_604)">
<path d="M111.765 13.9999H111L110.728 13.7299C111.891 12.3299 112.492 10.4199 112.162 8.38989C111.707 5.60989 109.459 3.38989 106.747 3.04989C102.649 2.52989 99.1996 6.08989 99.7033 10.3199C100.033 13.1199 102.183 15.4399 104.877 15.9099C106.843 16.2499 108.694 15.6299 110.05 14.4299L110.312 14.7099V15.4999L114.429 19.7499C114.826 20.1599 115.476 20.1599 115.873 19.7499C116.27 19.3399 116.27 18.6699 115.873 18.2599L111.765 13.9999ZM105.952 13.9999C103.54 13.9999 101.593 11.9899 101.593 9.49989C101.593 7.00989 103.54 4.99989 105.952 4.99989C108.364 4.99989 110.312 7.00989 110.312 9.49989C110.312 11.9899 108.364 13.9999 105.952 13.9999Z" fill="#323232"/>
</g>
<defs>
<clipPath id="clip0_367_604">
<rect width="24.1243" height="24" fill="white" transform="translate(0.5)"/>
</clipPath>
<clipPath id="clip1_367_604">
<rect width="24.1243" height="24" fill="white" transform="translate(48.6243)"/>
</clipPath>
<clipPath id="clip2_367_604">
<rect width="23.2514" height="24" fill="white" transform="translate(96.7485)"/>
</clipPath>
</defs>
</svg>
