<svg width="25" height="24" viewBox="0 0 25 24" fill="none" xmlns="http://www.w3.org/2000/svg">
<path fill-rule="evenodd" clip-rule="evenodd" d="M12.7471 5C7.74707 5 3.47707 8.11 1.74707 12.5C3.47707 16.89 7.74707 20 12.7471 20C17.7471 20 22.0171 16.89 23.7471 12.5C22.0171 8.11 17.7471 5 12.7471 5ZM12.7471 17.5C9.98707 17.5 7.74707 15.26 7.74707 12.5C7.74707 9.74 9.98707 7.5 12.7471 7.5C15.5071 7.5 17.7471 9.74 17.7471 12.5C17.7471 15.26 15.5071 17.5 12.7471 17.5ZM12.7471 9.5C11.0871 9.5 9.74707 10.84 9.74707 12.5C9.74707 14.16 11.0871 15.5 12.7471 15.5C14.4071 15.5 15.7471 14.16 15.7471 12.5C15.7471 10.84 14.4071 9.5 12.7471 9.5Z" fill="black" fill-opacity="0.6"/>
</svg>
