<svg width="40" height="40" viewBox="0 0 40 40" fill="none" xmlns="http://www.w3.org/2000/svg">
<path d="M13.3333 3.3335C11.5 3.3335 10 4.8335 10 6.66683L10.0167 11.9668C10.0167 12.8502 10.3667 13.6835 10.9833 14.3168L16.6667 20.0002L10.9833 25.7168C10.3667 26.3335 10.0167 27.1835 10.0167 28.0668L10 33.3335C10 35.1668 11.5 36.6668 13.3333 36.6668H26.6667C28.5 36.6668 30 35.1668 30 33.3335V28.0668C30 27.1835 29.65 26.3335 29.0333 25.7168L23.3333 20.0002L29.0167 14.3335C29.65 13.7002 30 12.8502 30 11.9668V6.66683C30 4.8335 28.5 3.3335 26.6667 3.3335H13.3333ZM26.6667 28.1835V31.6668C26.6667 32.5835 25.9167 33.3335 25 33.3335H15C14.0833 33.3335 13.3333 32.5835 13.3333 31.6668V28.1835C13.3333 27.7335 13.5167 27.3168 13.8167 27.0002L20 20.8335L26.1833 27.0168C26.4833 27.3168 26.6667 27.7502 26.6667 28.1835Z" fill="#323232"/>
</svg>
