<svg width="24" height="22" viewBox="0 0 24 22" fill="none" xmlns="http://www.w3.org/2000/svg">
<path d="M18 1.84266L6 1.8335C4.9 1.8335 4 2.64933 4 3.66683V18.3335C4 19.3418 4.9 20.1668 6 20.1668H18C19.1 20.1668 20 19.3418 20 18.3335V3.66683C20 2.64933 19.1 1.84266 18 1.84266ZM17 18.3335H7C6.45 18.3335 6 17.921 6 17.4168V10.9818C6 10.4777 6.45 10.0652 7 10.0652H17C17.55 10.0652 18 10.4777 18 10.9818V17.4168C18 17.921 17.55 18.3335 17 18.3335ZM17 8.25016H7C6.45 8.25016 6 7.83766 6 7.3335V4.5835C6 4.07933 6.45 3.66683 7 3.66683H17C17.55 3.66683 18 4.07933 18 4.5835V7.3335C18 7.83766 17.55 8.25016 17 8.25016ZM9 4.5835C9.55 4.5835 10 4.996 10 5.50016V6.41683C10 6.921 9.55 7.3335 9 7.3335C8.45 7.3335 8 6.921 8 6.41683V5.50016C8 4.996 8.45 4.5835 9 4.5835ZM9 11.0002C9.55 11.0002 10 11.4127 10 11.9168V14.6668C10 15.171 9.55 15.5835 9 15.5835C8.45 15.5835 8 15.171 8 14.6668V11.9168C8 11.4127 8.45 11.0002 9 11.0002Z" fill="#6200EE"/>
</svg>
