<svg width="24" height="23" viewBox="0 0 24 23" fill="none" xmlns="http://www.w3.org/2000/svg">
<path d="M12 8.80542H16C16.55 8.80542 17 8.39292 17 7.88875C17 7.38459 16.55 6.97209 16 6.97209H12C11.45 6.97209 11 7.38459 11 7.88875C11 8.39292 11.45 8.80542 12 8.80542ZM12 12.4721H16C16.55 12.4721 17 12.0596 17 11.5554C17 11.0513 16.55 10.6388 16 10.6388H12C11.45 10.6388 11 11.0513 11 11.5554C11 12.0596 11.45 12.4721 12 12.4721ZM12 16.1388H16C16.55 16.1388 17 15.7263 17 15.2221C17 14.7179 16.55 14.3054 16 14.3054H12C11.45 14.3054 11 14.7179 11 15.2221C11 15.7263 11.45 16.1388 12 16.1388ZM7 6.97209H9V8.80542H7V6.97209ZM7 10.6388H9V12.4721H7V10.6388ZM7 14.3054H9V16.1388H7V14.3054ZM20 3.30542H4C3.45 3.30542 3 3.71792 3 4.22209V18.8888C3 19.3929 3.45 19.8054 4 19.8054H20C20.55 19.8054 21 19.3929 21 18.8888V4.22209C21 3.71792 20.55 3.30542 20 3.30542ZM19 17.9721H5V5.13875H19V17.9721Z" fill="black" fill-opacity="0.6"/>
</svg>
