<svg width="16" height="17" viewBox="0 0 16 17" fill="none" xmlns="http://www.w3.org/2000/svg">
<path d="M8 1.5238C4.32 1.5238 1.33333 4.51047 1.33333 8.19047C1.33333 11.8705 4.32 14.8571 8 14.8571C11.68 14.8571 14.6667 11.8705 14.6667 8.19047C14.6667 4.51047 11.68 1.5238 8 1.5238ZM6.19333 11.0505L3.8 8.65714C3.54 8.39714 3.54 7.97714 3.8 7.71714C4.06 7.45714 4.48 7.45714 4.74 7.71714L6.66667 9.63714L11.2533 5.05047C11.5133 4.79047 11.9333 4.79047 12.1933 5.05047C12.4533 5.31047 12.4533 5.73047 12.1933 5.99047L7.13333 11.0505C6.88 11.3105 6.45333 11.3105 6.19333 11.0505Z" fill="#01A299"/>
</svg>
